<svg width="34" height="34" viewBox="0 0 34 34" fill="none" xmlns="http://www.w3.org/2000/svg">
<path d="M31.6897 2.45398H2.31021C1.07299 2.45398 0.0664062 3.46057 0.0664062 4.69785V25.3137C0.0664062 26.5509 1.07299 27.5575 2.31021 27.5575H9.89427L8.26871 30.347C8.12301 30.5969 8.12109 30.8943 8.26366 31.1425C8.40663 31.3914 8.67252 31.546 8.95754 31.546H25.0425C25.3274 31.546 25.5933 31.3914 25.7363 31.1425C25.8788 30.8944 25.8771 30.5971 25.7314 30.3471L24.1059 27.5575H31.6897C32.927 27.5575 33.9336 26.5509 33.9336 25.3137V4.69785C33.9336 3.46057 32.927 2.45398 31.6897 2.45398ZM2.31021 3.51648H31.6897C32.3412 3.51648 32.8711 4.0464 32.8711 4.69785V23.6275H1.12891V4.69785C1.12891 4.04647 1.65883 3.51648 2.31021 3.51648ZM24.5811 30.4835H9.41886L11.124 27.5575H22.876L24.5811 30.4835ZM31.6897 26.495H2.31021C1.65883 26.495 1.12891 25.965 1.12891 25.3137V24.6899H32.8711V25.3137C32.8711 25.965 32.3412 26.495 31.6897 26.495ZM5.16136 15.5879C6.08905 15.5879 6.87198 14.9578 7.1058 14.1033H10.2517V15.9781H8.92048C8.75261 15.9781 8.59456 16.0575 8.49429 16.1922L7.13276 18.0218C6.90499 17.9323 6.65743 17.8827 6.39831 17.8827C5.28673 17.8827 4.38241 18.787 4.38241 19.8986C4.38241 21.0101 5.28673 21.9145 6.39831 21.9145C7.50988 21.9145 8.4142 21.0101 8.4142 19.8986C8.4142 19.4304 8.2533 18.9993 7.98455 18.6568L9.18731 17.0406H10.2516V18.1928C10.2516 19.3659 11.206 20.3203 12.3791 20.3203H16.7237C16.7796 20.4798 16.8856 20.62 17.0326 20.7186C17.2894 20.8908 17.6149 20.9018 17.882 20.7476L18.2852 20.5148L19.526 22.6637C19.6441 22.8685 19.8352 23.0151 20.0641 23.0764C20.1406 23.0969 20.2183 23.1071 20.2954 23.1071C20.4489 23.1071 20.6003 23.0669 20.7365 22.9882L21.8884 22.3231C22.3116 22.0788 22.4571 21.5357 22.2128 21.1125L21.7528 20.3158C22.8647 20.2473 23.7483 19.3215 23.7483 18.1928V17.0406H24.8127L26.0154 18.6568C25.7466 18.9994 25.5857 19.4304 25.5857 19.8986C25.5857 21.0101 26.4901 21.9145 27.6017 21.9145C28.7133 21.9145 29.6176 21.0101 29.6176 19.8986C29.6176 18.787 28.7133 17.8827 27.6017 17.8827C27.3426 17.8827 27.095 17.9323 26.8672 18.0218L25.5058 16.1922C25.4055 16.0574 25.2475 15.9781 25.0796 15.9781H23.7483V14.1032H26.8943C27.128 14.9578 27.9109 15.5879 28.8386 15.5879C29.9502 15.5879 30.8545 14.6836 30.8545 13.572C30.8545 12.4604 29.9502 11.556 28.8386 11.556C27.9109 11.556 27.128 12.1861 26.8943 13.0407H23.7483V11.1658H25.0796C25.2475 11.1658 25.4055 11.0865 25.5058 10.9517L26.8672 9.12216C27.095 9.21161 27.3426 9.26128 27.6018 9.26128C28.7133 9.26128 29.6177 8.35696 29.6177 7.24539C29.6177 6.13382 28.7133 5.2295 27.6018 5.2295C26.4902 5.2295 25.5858 6.13382 25.5858 7.24539C25.5858 7.71355 25.7467 8.1446 26.0154 8.48719L24.8128 10.1034H23.7484V8.95117C23.7484 7.77804 22.794 6.82364 21.6209 6.82364H12.3791C11.206 6.82364 10.2516 7.77804 10.2516 8.95117V10.1034H9.18731L7.98462 8.48719C8.25337 8.1446 8.41427 7.71355 8.41427 7.24539C8.41427 6.13382 7.50995 5.2295 6.39838 5.2295C5.2868 5.2295 4.38248 6.13382 4.38248 7.24539C4.38248 8.35696 5.2868 9.26128 6.39838 9.26128C6.65749 9.26128 6.90506 9.21161 7.13283 9.12216L8.49436 10.9517C8.59463 11.0865 8.75268 11.1658 8.92055 11.1658H10.2517V13.0407H7.10587C6.87205 12.1861 6.08912 11.556 5.16143 11.556C4.04985 11.556 3.14553 12.4604 3.14553 13.572C3.14553 14.6836 4.04972 15.5879 5.16136 15.5879ZM6.39831 20.852C5.87257 20.852 5.44491 20.4244 5.44491 19.8986C5.44491 19.3729 5.87257 18.9452 6.39831 18.9452C6.92405 18.9452 7.3517 19.373 7.3517 19.8986C7.3517 20.4243 6.92405 20.852 6.39831 20.852ZM28.5552 19.8986C28.5552 20.4244 28.1275 20.852 27.6018 20.852C27.076 20.852 26.6483 20.4244 26.6483 19.8986C26.6483 19.3729 27.076 18.9452 27.6018 18.9452C28.1275 18.9452 28.5552 19.3729 28.5552 19.8986ZM28.8386 12.6185C29.3643 12.6185 29.792 13.0462 29.792 13.572C29.792 14.0977 29.3643 14.5254 28.8386 14.5254C28.3128 14.5254 27.8852 14.0977 27.8852 13.572C27.8852 13.0462 28.3128 12.6185 28.8386 12.6185ZM27.6017 6.29193C28.1274 6.29193 28.5551 6.71959 28.5551 7.24532C28.5551 7.77106 28.1274 8.19872 27.6017 8.19872C27.076 8.19872 26.6482 7.77106 26.6482 7.24532C26.6482 6.71959 27.076 6.29193 27.6017 6.29193ZM17 17.06C15.0767 17.06 13.512 15.4953 13.512 13.572C13.512 11.6487 15.0767 10.084 17 10.084C18.9233 10.084 20.4879 11.6487 20.4879 13.572C20.4879 14.6952 19.9591 15.7277 19.062 16.3845L18.2269 16.0418C17.9951 15.9468 17.738 15.9642 17.5212 16.0893C17.3045 16.2145 17.1611 16.4286 17.1276 16.6766L17.076 17.0586C17.0507 17.0592 17.0253 17.06 17 17.06ZM20.358 21.9799L18.9397 19.5234C18.8414 19.353 18.6628 19.2577 18.4791 19.2577C18.3891 19.2577 18.2977 19.2807 18.214 19.329L17.8099 19.5624L18.1354 17.1528L20.3849 18.0756L19.9807 18.3089C19.8587 18.3794 19.7697 18.4954 19.7331 18.6315C19.6967 18.7676 19.7157 18.9126 19.7863 19.0346L21.2044 21.4911L20.358 21.9799ZM11.3141 8.9511C11.3141 8.36387 11.7918 7.88608 12.3791 7.88608H21.6208C22.2081 7.88608 22.6858 8.36387 22.6858 8.9511V18.1928C22.6858 18.78 22.2081 19.2578 21.6208 19.2578H21.1421L20.9722 18.9634L21.3751 18.7308C21.6424 18.5766 21.7957 18.2892 21.7749 17.9806C21.7544 17.674 21.5642 17.4109 21.2787 17.2938L20.1694 16.8387C21.0465 15.9913 21.5504 14.8247 21.5504 13.5719C21.5504 11.0628 19.5091 9.02143 17 9.02143C14.4908 9.02143 12.4495 11.0628 12.4495 13.5719C12.4495 16.0584 14.4545 18.0844 16.9326 18.1207L16.7789 19.2577H12.3792C11.7919 19.2577 11.3142 18.78 11.3142 18.1927V8.9511H11.3141ZM5.44485 7.24539C5.44485 6.71965 5.8725 6.292 6.39824 6.292C6.92398 6.292 7.35164 6.71965 7.35164 7.24539C7.35164 7.77113 6.92398 8.19878 6.39824 8.19878C5.8725 8.19878 5.44485 7.77113 5.44485 7.24539ZM5.16136 12.6185C5.6871 12.6185 6.11482 13.0462 6.11482 13.572C6.11482 14.0977 5.6871 14.5254 5.16136 14.5254C4.63562 14.5254 4.20796 14.0977 4.20796 13.572C4.20796 13.0462 4.63562 12.6185 5.16136 12.6185ZM19.1848 12.7748L16.8644 15.1169C16.7605 15.2217 16.6238 15.2743 16.4869 15.2743C16.3531 15.2743 16.2194 15.2241 16.1161 15.1235L14.8217 13.8618C14.6116 13.657 14.6073 13.3207 14.8121 13.1106C15.0169 12.9005 15.3532 12.8962 15.5633 13.101L16.4804 13.9948L18.4299 12.027C18.6364 11.8185 18.9727 11.817 19.1812 12.0235C19.3897 12.23 19.3913 12.5664 19.1848 12.7748Z" fill="white"/>
</svg>
