<svg width="24" height="24" viewBox="0 0 24 24" fill="none" xmlns="http://www.w3.org/2000/svg">
<g clip-path="url(#clip0_272_158)">
<path d="M11.484 5.2342C11.5238 5.23389 11.5637 5.23358 11.6047 5.23326C11.6886 5.23279 11.7726 5.23256 11.8565 5.23258C11.9833 5.23237 12.1099 5.23067 12.2367 5.22889C12.9578 5.22414 13.5198 5.34464 14.0616 5.85365C14.5006 6.32199 14.647 6.86091 14.636 7.48988C14.6132 7.77895 14.5403 8.01773 14.3875 8.26405C14.2844 8.4406 14.2651 8.59924 14.2491 8.80366C14.1996 9.30009 14.0401 9.68404 13.7335 10.0781C13.6999 10.1038 13.6664 10.1296 13.6319 10.1561C13.4971 10.3279 13.5241 10.4992 13.5313 10.7109C13.532 10.771 13.532 10.771 13.5327 10.8323C13.5346 10.9408 13.537 11.048 13.546 11.1562C13.5481 11.1895 13.5503 11.2227 13.5525 11.257C13.5874 11.3575 13.5874 11.3575 13.7145 11.394C13.7671 11.4083 13.8198 11.4227 13.8741 11.4375C14.0946 11.5193 14.3139 11.6041 14.533 11.6894C14.6032 11.7166 14.6734 11.7436 14.7437 11.7704C15.4165 12.0269 16.0117 12.3126 16.3585 12.9843C16.5364 13.403 16.5205 13.8361 16.5194 14.2818C16.5196 14.3616 16.5199 14.4414 16.5202 14.5212C16.5206 14.6876 16.5205 14.8539 16.52 15.0202C16.5195 15.2333 16.5204 15.4464 16.5218 15.6595C16.5226 15.8239 16.5226 15.9883 16.5224 16.1527C16.5224 16.2313 16.5226 16.3099 16.5232 16.3885C16.5239 16.4981 16.5234 16.6077 16.5226 16.7173C16.5233 16.7658 16.5233 16.7658 16.524 16.8153C16.5216 16.97 16.5076 17.0511 16.4141 17.1765C16.2653 17.2831 16.1621 17.2723 15.9835 17.25C15.8342 17.1674 15.8038 17.1328 15.7491 16.9687C15.7445 16.861 15.7427 16.7531 15.7424 16.6453C15.7423 16.6126 15.7421 16.5799 15.742 16.5462C15.7416 16.4751 15.7414 16.4041 15.7412 16.333C15.7409 16.2202 15.7401 16.1075 15.7393 15.9947C15.7368 15.6741 15.7345 15.3535 15.7338 15.0329C15.7333 14.8367 15.732 14.6405 15.73 14.4443C15.7294 14.3698 15.7292 14.2953 15.7293 14.2208C15.7298 13.7705 15.7194 13.3906 15.434 13.0201C15.1747 12.7997 14.9013 12.6809 14.5831 12.5654C14.5341 12.5467 14.4852 12.5281 14.4348 12.5089C14.2073 12.4131 14.2073 12.4131 13.9678 12.375C13.9034 12.4674 13.8412 12.5614 13.7803 12.6562C13.4928 13.0875 12.9365 13.3759 12.4371 13.4849C11.7471 13.5792 11.1629 13.4219 10.5928 13.0312C10.5513 13.0041 10.5097 12.9771 10.4669 12.9492C10.2926 12.7796 10.1642 12.5771 10.0303 12.375C9.11978 12.606 9.11978 12.606 8.4359 13.1998C8.26288 13.5277 8.26984 13.8572 8.27177 14.218C8.27236 14.3303 8.27183 14.4426 8.27102 14.555C8.26977 14.7528 8.2695 14.9506 8.26957 15.1484C8.26967 15.4656 8.26901 15.7828 8.26696 16.1C8.2665 16.2104 8.26691 16.3208 8.26737 16.4312C8.26708 16.4991 8.26676 16.5669 8.26639 16.6347C8.26644 16.6937 8.26648 16.7527 8.26653 16.8134C8.24771 16.9811 8.20957 17.0695 8.10847 17.2031C7.96355 17.2755 7.84624 17.2637 7.6866 17.25C7.5837 17.1769 7.5837 17.1769 7.4991 17.0625C7.48081 16.9407 7.47388 16.8389 7.47558 16.7173C7.47533 16.6828 7.47508 16.6483 7.47481 16.6128C7.47423 16.4989 7.475 16.385 7.47584 16.2711C7.47584 16.1915 7.47577 16.112 7.47564 16.0325C7.47557 15.8656 7.47616 15.6988 7.47723 15.532C7.47855 15.3192 7.47843 15.1064 7.47783 14.8937C7.47751 14.7293 7.47788 14.5649 7.47846 14.4005C7.47867 14.3221 7.47868 14.2437 7.4785 14.1653C7.47763 13.4683 7.5612 12.895 8.0627 12.3693C8.51443 11.9963 9.1148 11.8287 9.65535 11.625C9.72424 11.5983 9.7931 11.5716 9.86189 11.5448C10.0422 11.4745 10.2218 11.4049 10.4053 11.3437C10.5218 11.0284 10.5081 10.5923 10.4522 10.2656C10.3742 10.125 10.2951 10.0423 10.1759 9.9358C9.83866 9.62107 9.75828 9.13456 9.73445 8.69526C9.71679 8.46076 9.64571 8.31234 9.52461 8.1139C9.29266 7.71211 9.33173 7.18218 9.4239 6.74409C9.57442 6.21343 9.91288 5.78929 10.3843 5.5063C10.7508 5.31496 11.0738 5.23534 11.484 5.2342ZM10.7335 6.18745C10.695 6.21283 10.6565 6.23821 10.6168 6.26435C10.362 6.48919 10.2308 6.71101 10.1241 7.0312C10.1209 7.1122 10.1201 7.19331 10.1212 7.27436C10.1216 7.3166 10.122 7.35884 10.1225 7.40236C10.123 7.43456 10.1235 7.46677 10.1241 7.49995C10.1695 7.52122 10.215 7.54249 10.2618 7.5644C10.4053 7.64058 10.4053 7.64058 10.4522 7.73433C10.4572 7.81326 10.4595 7.89236 10.4605 7.97145C10.4616 8.01958 10.4627 8.0677 10.4639 8.11729C10.4658 8.21775 10.4673 8.31821 10.4682 8.41868C10.4827 8.95944 10.6203 9.37249 11.0147 9.74995C11.3168 10.0294 11.6744 10.1414 12.0813 10.1352C12.5329 10.0912 12.8773 9.88269 13.1893 9.56245C13.4382 9.25317 13.5056 8.90609 13.502 8.51948C13.5016 8.46027 13.5012 8.40105 13.5007 8.34004C13.5002 8.29484 13.4997 8.24964 13.4991 8.20308C13.4728 8.19769 13.4464 8.19231 13.4193 8.18677C12.5875 8.01407 11.6983 7.8157 10.9678 7.35933C10.9013 7.22616 10.9062 7.13176 10.921 6.98433C10.9884 6.87007 10.9884 6.87007 11.1085 6.79683C11.4018 6.76639 11.6453 6.88903 11.903 7.01271C12.4918 7.28187 13.2211 7.49995 13.8741 7.49995C13.9074 7.05672 13.814 6.75347 13.5343 6.40718C13.3077 6.1621 13.0141 6.0086 12.6787 5.99165C12.6107 5.99039 12.5428 5.98946 12.4748 5.98878C12.4386 5.9884 12.4023 5.98802 12.3649 5.98763C12.2881 5.98699 12.2113 5.98648 12.1344 5.98611C12.0564 5.98558 11.9784 5.98462 11.9004 5.98323C11.2894 5.96197 11.2894 5.96197 10.7335 6.18745ZM11.2491 10.7343C11.244 10.7818 11.2388 10.8293 11.2335 10.8782C11.2261 10.9416 11.2185 11.005 11.211 11.0683C11.2077 11.0995 11.2044 11.1307 11.201 11.1628C11.1665 11.4449 11.0928 11.6424 10.8887 11.8417C10.7585 11.9496 10.7585 11.9496 10.7803 12.1406C10.8828 12.2626 10.8828 12.2626 11.0147 12.375C11.0476 12.4069 11.0805 12.4388 11.1143 12.4716C11.4491 12.6972 11.8315 12.8111 12.2335 12.75C12.6613 12.6393 13.0034 12.4596 13.2647 12.0937C13.2118 11.9639 13.1628 11.8989 13.0567 11.8037C12.7859 11.5064 12.7701 11.1213 12.7491 10.7343C12.7173 10.7411 12.6855 10.7479 12.6528 10.7548C12.1588 10.8534 11.7412 10.8391 11.2491 10.7343Z" fill="white"/>
<path d="M21.8898 14.6719C22.004 14.7715 22.004 14.7715 22.0773 14.9063C22.0082 15.9675 21.2894 17.1645 20.671 18C20.6386 18.0451 20.6061 18.0902 20.5727 18.1366C19.9342 19.0082 19.2033 19.801 18.3273 20.4375C18.2783 20.4734 18.2294 20.5093 18.179 20.5463C17.3581 21.1309 16.4711 21.6 15.5236 21.9434C15.4847 21.9578 15.4458 21.9722 15.4057 21.9871C15.1902 22.0618 15.0379 22.0985 14.8116 22.0313C14.6901 21.9517 14.6727 21.8962 14.63 21.7559C14.6227 21.5726 14.6504 21.5179 14.7648 21.375C14.8922 21.3135 15.0098 21.2652 15.1427 21.2198C15.2194 21.1917 15.296 21.1634 15.3725 21.135C15.4117 21.1206 15.4509 21.1061 15.4913 21.0912C17.8505 20.1989 19.8146 18.3798 20.8585 16.0782C20.963 15.8263 21.0574 15.571 21.1497 15.3144C21.3547 14.7606 21.3547 14.7606 21.5119 14.6614C21.656 14.6071 21.744 14.6264 21.8898 14.6719Z" fill="white"/>
<path d="M2.36972 14.6191C2.56742 14.6838 2.62551 14.777 2.71836 14.9531C2.77562 15.0887 2.82318 15.227 2.8707 15.3662C3.722 17.755 5.52196 19.7051 7.80269 20.8055C8.09072 20.9361 8.38777 21.0436 8.68521 21.1505C9.23857 21.3554 9.23857 21.3554 9.33857 21.5126C9.39093 21.6532 9.36722 21.7478 9.32773 21.8906C9.25203 22.0062 9.20022 22.0274 9.06736 22.0662C8.84964 22.0823 8.68965 22.0239 8.48691 21.9492C8.44628 21.9345 8.40565 21.9198 8.36378 21.9047C7.30405 21.5094 6.31947 20.9579 5.43711 20.25C5.38985 20.2123 5.3426 20.1746 5.29392 20.1357C4.64237 19.6054 4.056 19.0079 3.56211 18.3281C3.52621 18.2792 3.49032 18.2302 3.45334 18.1798C2.86875 17.3589 2.39963 16.4719 2.05625 15.5244C2.04182 15.4855 2.0274 15.4466 2.01254 15.4065C1.93821 15.1922 1.89766 15.0368 1.96836 14.8125C2.10156 14.6597 2.166 14.6263 2.36972 14.6191Z" fill="white"/>
<path d="M15.3392 1.9982C16.2788 2.29741 17.2062 2.7403 18.0005 3.32808C18.0456 3.36053 18.0907 3.39298 18.1371 3.42641C19.0087 4.06488 19.8015 4.79581 20.438 5.67183C20.4739 5.72078 20.5098 5.76972 20.5468 5.82015C21.1314 6.64103 21.6005 7.52804 21.9439 8.47554C21.9583 8.51445 21.9727 8.55335 21.9876 8.59343C22.0619 8.80772 22.1025 8.96314 22.0318 9.18746C21.9322 9.30172 21.9322 9.30172 21.7974 9.37496C21.6304 9.38082 21.6304 9.38082 21.4693 9.32808C21.2991 9.11492 21.2168 8.8898 21.1294 8.63375C20.2781 6.24493 18.4782 4.2949 16.1974 3.19446C15.9094 3.06383 15.6124 2.95636 15.3149 2.84945C14.7611 2.64438 14.7611 2.64438 14.6619 2.48719C14.6076 2.34305 14.6268 2.25511 14.6724 2.10933C14.8795 1.87181 15.064 1.92041 15.3392 1.9982Z" fill="white"/>
<path d="M9.18843 1.96884C9.30268 2.06845 9.30268 2.06845 9.37593 2.20322C9.38179 2.37021 9.38179 2.37021 9.32905 2.53134C9.11589 2.70154 8.89077 2.7838 8.63472 2.87119C6.2459 3.72249 4.29587 5.52245 3.19543 7.80318C3.06479 8.0912 2.95733 8.38825 2.85041 8.6857C2.6477 9.23558 2.6477 9.23558 2.43843 9.3751C2.24335 9.37155 2.14315 9.35614 1.99311 9.22861C1.88957 9.03014 1.94074 8.86815 1.99916 8.66137C2.29846 7.72182 2.74125 6.79443 3.32905 6.00009C3.3615 5.95502 3.39395 5.90994 3.42738 5.8635C4.06585 4.99193 4.79678 4.19909 5.6728 3.56259C5.72175 3.5267 5.77069 3.49081 5.82112 3.45383C6.64199 2.86924 7.52901 2.40012 8.47651 2.05674C8.51541 2.04231 8.55432 2.02789 8.5944 2.01303C8.80869 1.9387 8.96411 1.89815 9.18843 1.96884Z" fill="white"/>
<path d="M13.3319 20.7793C13.6834 21.1567 13.876 21.6318 13.8986 22.1484C13.8818 22.5575 13.7572 22.9755 13.5001 23.2968C13.474 23.3355 13.4479 23.3741 13.421 23.414C13.2646 23.5831 13.0893 23.6972 12.8908 23.8124C12.8571 23.8321 12.8235 23.8517 12.7888 23.8719C12.3747 24.0743 11.8545 24.0694 11.4137 23.9585C10.936 23.7738 10.5435 23.4786 10.3126 23.0155C10.0612 22.3984 10.0689 21.8993 10.3126 21.2812C10.4035 21.12 10.4035 21.12 10.5001 20.9999C10.532 20.9545 10.5639 20.909 10.5968 20.8622C10.8399 20.577 11.2128 20.3657 11.5783 20.2968C11.6334 20.2852 11.6885 20.2736 11.7453 20.2616C12.3279 20.2005 12.9034 20.381 13.3319 20.7793ZM11.1095 21.4218C10.8947 21.7058 10.8344 22.0105 10.8751 22.3593C10.983 22.7041 11.144 22.9656 11.4611 23.1474C11.7761 23.2933 12.079 23.3121 12.4114 23.21C12.7529 23.0593 12.9398 22.8362 13.0958 22.5028C13.1647 22.1653 13.1456 21.8702 12.9845 21.5624C12.7996 21.285 12.5544 21.1134 12.2325 21.0186C11.7807 20.941 11.4278 21.1054 11.1095 21.4218Z" fill="white"/>
<path d="M23.18 10.4062C23.2187 10.4371 23.2574 10.468 23.2972 10.4999C23.3359 10.526 23.3746 10.5521 23.4144 10.579C23.5835 10.7354 23.6977 10.9108 23.8129 11.1093C23.8325 11.1429 23.8521 11.1766 23.8724 11.2113C24.0748 11.6254 24.0698 12.1455 23.959 12.5864C23.7743 13.0641 23.4791 13.4566 23.016 13.6874C22.3989 13.9388 21.8997 13.9311 21.2816 13.6874C21.1205 13.5966 21.1205 13.5966 21.0004 13.4999C20.9549 13.468 20.9095 13.4361 20.8627 13.4032C20.4698 13.0684 20.2932 12.5816 20.2522 12.0814C20.2446 11.5505 20.4166 11.0589 20.7797 10.6682C21.4261 10.0661 22.4186 9.91286 23.18 10.4062ZM21.2816 11.2499C21.0537 11.572 20.9636 11.8643 21.0238 12.2548C21.1054 12.5712 21.3149 12.8405 21.5951 13.0077C21.8791 13.1363 22.1694 13.1844 22.4727 13.0896C22.827 12.9387 23.0416 12.7682 23.2055 12.4145C23.3149 12.0894 23.2946 11.7792 23.1566 11.4667C22.9996 11.1901 22.7873 11.0371 22.5033 10.9042C22.0473 10.8111 21.6016 10.8856 21.2816 11.2499Z" fill="white"/>
<path d="M2.87953 10.4034C2.93899 10.4512 2.93899 10.4512 2.99964 10.5001C3.04508 10.532 3.09052 10.5639 3.13734 10.5967C3.53022 10.9316 3.70683 11.4184 3.74781 11.9186C3.75539 12.4494 3.58342 12.9411 3.22029 13.3318C2.84285 13.6833 2.36778 13.8759 1.85121 13.8985C1.44206 13.8817 1.02411 13.7571 0.70277 13.5001C0.664098 13.474 0.625426 13.4479 0.585582 13.421C0.416495 13.2646 0.302346 13.0892 0.187145 12.8907C0.167507 12.857 0.147869 12.8234 0.127635 12.7887C-0.0747709 12.3746 -0.0698028 11.8544 0.0410266 11.4136C0.225736 10.9359 0.520943 10.5434 0.98402 10.3126C1.64175 10.0446 2.25109 10.0492 2.87953 10.4034ZM0.98402 11.2501C0.759675 11.5769 0.686498 11.889 0.749645 12.2813C0.856853 12.6305 1.04312 12.8521 1.35902 13.0313C1.64637 13.1658 1.95907 13.1701 2.25843 13.0694C2.61388 12.9164 2.80505 12.6798 2.95277 12.3282C3.03182 12.0597 3.00907 11.7904 2.90589 11.5313C2.72294 11.2246 2.50801 10.9982 2.15846 10.895C1.7263 10.8055 1.29139 10.9256 0.98402 11.2501Z" fill="white"/>
<path d="M13.1025 0.308204C13.5551 0.630241 13.7606 1.05796 13.875 1.59379C13.9362 2.04452 13.8185 2.48632 13.5967 2.87992C13.5648 2.91956 13.5329 2.9592 13.5 3.00004C13.4681 3.04548 13.4362 3.09092 13.4033 3.13773C13.0685 3.53061 12.5817 3.70722 12.0815 3.74821C11.5506 3.75578 11.059 3.58382 10.6683 3.22068C10.3168 2.84325 10.1242 2.36818 10.1016 1.8516C10.1183 1.44245 10.2429 1.0245 10.5 0.703163C10.5261 0.664491 10.5522 0.625819 10.5791 0.585975C10.7355 0.416888 10.9109 0.302739 11.1094 0.187538C11.143 0.1679 11.1767 0.148262 11.2114 0.128028C11.8243 -0.171567 12.5463 -0.0393025 13.1025 0.308204ZM11.0859 1.16898C10.8964 1.45601 10.838 1.72223 10.875 2.06254C10.9455 2.3647 11.0911 2.60635 11.3458 2.78654C11.6482 2.96874 11.9059 3.03044 12.2549 2.9766C12.5713 2.89503 12.8406 2.68545 13.0078 2.40531C13.1364 2.1213 13.1845 1.83095 13.0897 1.52769C12.9388 1.17341 12.7683 0.958774 12.4146 0.794899C11.92 0.628471 11.4122 0.758356 11.0859 1.16898Z" fill="white"/>
<path d="M14.8594 14.2968C14.9814 14.4106 14.9995 14.4788 15.0182 14.6462C15.0192 14.7116 15.0194 14.7771 15.019 14.8425C15.0193 14.8784 15.0197 14.9142 15.02 14.9512C15.0208 15.0695 15.0207 15.1878 15.0204 15.3061C15.0206 15.3884 15.0209 15.4707 15.0211 15.553C15.0216 15.7254 15.0214 15.8978 15.021 16.0703C15.0204 16.2913 15.0214 16.5122 15.0228 16.7332C15.0236 16.9032 15.0236 17.0731 15.0233 17.2431C15.0233 17.3245 15.0236 17.406 15.0242 17.4875C15.0249 17.6014 15.0244 17.7153 15.0236 17.8292C15.024 17.8628 15.0245 17.8965 15.025 17.9312C15.0226 18.0888 15.0101 18.174 14.9149 18.3019C14.7631 18.4102 14.6663 18.4036 14.4844 18.3749C14.3217 18.2499 14.2572 18.1809 14.2213 17.9766C14.2203 17.9129 14.2206 17.8492 14.222 17.7856C14.2218 17.7506 14.2216 17.7157 14.2214 17.6797C14.2211 17.5647 14.2225 17.4497 14.2239 17.3347C14.2241 17.2546 14.2242 17.1744 14.2242 17.0943C14.2245 16.9265 14.2256 16.7588 14.2272 16.5911C14.2294 16.3761 14.2301 16.1612 14.2302 15.9462C14.2304 15.7808 14.2312 15.6154 14.232 15.45C14.2325 15.3708 14.2328 15.2915 14.233 15.2123C14.2334 15.1015 14.2345 14.9908 14.2357 14.8801C14.2357 14.8474 14.2358 14.8146 14.2358 14.7809C14.2384 14.6125 14.2486 14.4853 14.3438 14.3437C14.5107 14.2139 14.6628 14.2467 14.8594 14.2968Z" fill="white"/>
<path d="M9.5616 14.297C9.65502 14.3711 9.69592 14.425 9.7491 14.5314C9.75466 14.6445 9.75746 14.7564 9.75814 14.8696C9.75852 14.9045 9.75891 14.9393 9.7593 14.9752C9.76047 15.0907 9.76124 15.2063 9.76192 15.3218C9.76217 15.3613 9.76242 15.4007 9.76267 15.4414C9.76393 15.6501 9.76483 15.8589 9.76551 16.0677C9.76629 16.2833 9.76839 16.4989 9.77078 16.7145C9.77235 16.8803 9.7729 17.0461 9.77316 17.2119C9.77348 17.2914 9.77419 17.3709 9.77531 17.4504C9.77679 17.5617 9.7768 17.673 9.77645 17.7843C9.77722 17.8171 9.77799 17.8498 9.77878 17.8836C9.77651 18.0618 9.75223 18.1368 9.64064 18.2786C9.51472 18.3751 9.51472 18.3751 9.34773 18.4015C9.15705 18.3703 9.11302 18.3408 8.9991 18.1876C8.98083 18.0617 8.97389 17.9551 8.97558 17.8294C8.97533 17.7935 8.97507 17.7577 8.97481 17.7208C8.97423 17.6024 8.975 17.4842 8.97584 17.3658C8.97584 17.2835 8.97577 17.2012 8.97564 17.1189C8.97557 16.9465 8.97616 16.7741 8.97723 16.6016C8.97856 16.3806 8.97843 16.1597 8.97783 15.9387C8.97751 15.7687 8.97787 15.5988 8.97846 15.4288C8.97867 15.3474 8.97868 15.2659 8.9785 15.1844C8.97836 15.0705 8.97914 14.9566 8.98016 14.8427C8.97995 14.8091 8.97974 14.7754 8.97952 14.7407C8.98166 14.5973 8.99172 14.4978 9.06181 14.3713C9.22062 14.2199 9.36192 14.2471 9.5616 14.297Z" fill="white"/>
</g>
<defs>
<clipPath id="clip0_272_158">
<rect width="24" height="24" fill="white"/>
</clipPath>
</defs>
</svg>
