<svg width="34" height="35" viewBox="0 0 34 35" fill="none" xmlns="http://www.w3.org/2000/svg">
<g clip-path="url(#clip0_202_72)">
<path d="M33.7349 11.0188L28.9531 8.25037V1.91603C28.9531 1.62263 28.7153 1.38478 28.4219 1.38478H24.1719C23.8785 1.38478 23.6406 1.62263 23.6406 1.91603V5.2337L17.2708 1.459C17.1053 1.3609 16.8996 1.35995 16.7332 1.45662L0.264488 11.0191C0.100746 11.1142 0 11.2892 0 11.4785V14.1348C0 14.4282 0.237841 14.666 0.53125 14.666H2.92188V32.1973C2.92188 32.4907 3.15972 32.7285 3.45312 32.7285H30.5469C30.8403 32.7285 31.0781 32.4907 31.0781 32.1973V14.666H33.4688C33.7621 14.666 34 14.4282 34 14.1348V11.4785C34 11.289 33.899 11.1137 33.7349 11.0188ZM32.9375 13.6035H30.5469C30.2535 13.6035 30.0156 13.8414 30.0156 14.1348V31.666H3.98438V14.1348C3.98438 13.8414 3.7465 13.6035 3.45312 13.6035H1.0625V11.7844L16.9972 2.53192L23.901 6.62306C24.0652 6.72033 24.269 6.72208 24.4349 6.62761C24.6007 6.53312 24.7031 6.3569 24.7031 6.16603V2.44728H27.8906V8.55666C27.8906 8.74623 27.9916 8.92143 28.1557 9.01641L32.9375 11.7848V13.6035Z" fill="white"/>
<path d="M27.3594 13.3379H6.64062C6.34722 13.3379 6.10938 13.5757 6.10938 13.8691V17.0566C6.10938 17.35 6.34722 17.5879 6.64062 17.5879H7.4375V19.4472C7.4375 24.6403 11.8093 29.0097 17 29.0097C22.1815 29.0097 26.5625 24.6447 26.5625 19.4472V17.5879H27.3594C27.6528 17.5879 27.8906 17.35 27.8906 17.0566V13.8691C27.8906 13.5757 27.6528 13.3379 27.3594 13.3379ZM13.2812 27.0894V23.4316C13.2812 21.3811 14.9495 19.7129 17 19.7129C19.0505 19.7129 20.7188 21.3811 20.7188 23.4316V27.0894C19.5948 27.6385 18.3328 27.9472 17 27.9472C15.6671 27.9472 14.4052 27.6385 13.2812 27.0894ZM25.5 19.4472C25.5 22.3626 24.0245 24.9395 21.7812 26.4713V23.4316C21.7812 20.7952 19.6364 18.6504 17 18.6504C14.3636 18.6504 12.2188 20.7952 12.2188 23.4316V26.4713C9.97549 24.9395 8.5 22.3626 8.5 19.4472V17.5879H25.5V19.4472ZM26.8281 16.5254H7.17188V14.4004H26.8281V16.5254Z" fill="white"/>
<path d="M17 21.3066C15.6818 21.3066 14.6094 22.3791 14.6094 23.6973C14.6094 25.0155 15.6818 26.0879 17 26.0879C18.3182 26.0879 19.3906 25.0155 19.3906 23.6973C19.3906 22.3791 18.3182 21.3066 17 21.3066ZM17 25.0254C16.2677 25.0254 15.6719 24.4296 15.6719 23.6973C15.6719 22.9649 16.2677 22.3691 17 22.3691C17.7323 22.3691 18.3281 22.9649 18.3281 23.6973C18.3281 24.4296 17.7323 25.0254 17 25.0254Z" fill="white"/>
</g>
<defs>
<clipPath id="clip0_202_72">
<rect width="34" height="34" fill="white" transform="translate(0 0.0566406)"/>
</clipPath>
</defs>
</svg>
