<svg width="160" height="41" viewBox="0 0 160 41" fill="none" xmlns="http://www.w3.org/2000/svg">
<path d="M19.9437 0.601318C8.90141 0.601318 0 9.50273 0 20.545C0 31.5872 8.90141 40.6013 19.9437 40.6013C30.9859 40.6013 39.8873 31.6999 39.8873 20.6577C39.8873 9.6154 30.9859 0.601318 19.9437 0.601318ZM19.9437 35.8689C11.493 35.8689 4.73239 28.9957 4.73239 20.6577C4.73239 12.207 11.6056 5.44639 19.9437 5.44639C28.3944 5.44639 35.1549 12.3196 35.1549 20.6577C35.1549 28.9957 28.3944 35.8689 19.9437 35.8689Z" fill="#E01C08"/>
<path d="M19.9428 12.5452C15.4357 12.5452 11.8301 16.1508 11.8301 20.6578C11.8301 25.1649 15.4357 28.7705 19.9428 28.7705C24.4498 28.7705 28.0554 25.1649 28.0554 20.6578C28.0554 16.1508 24.4498 12.5452 19.9428 12.5452ZM19.9428 25.2776C17.3512 25.2776 15.2104 23.1367 15.2104 20.5452C15.2104 17.9536 17.3512 15.8128 19.9428 15.8128C22.5343 15.8128 24.6751 17.9536 24.6751 20.5452C24.6751 23.2494 22.5343 25.2776 19.9428 25.2776Z" fill="#E01C08"/>
<path d="M19.9445 17.9539C18.4797 17.9539 17.2402 19.1933 17.2402 20.6581C17.2402 22.1229 18.4797 23.3623 19.9445 23.3623C21.4092 23.3623 22.6487 22.1229 22.6487 20.6581C22.6487 19.1933 21.4092 17.9539 19.9445 17.9539ZM18.2543 19.1933C18.2543 18.6299 18.705 18.1792 19.2684 18.1792C19.8318 18.1792 20.2825 18.6299 20.2825 19.1933C20.2825 19.7567 19.8318 20.2074 19.2684 20.2074C18.705 20.2074 18.2543 19.7567 18.2543 19.1933ZM19.7191 23.0243C19.2684 23.0243 18.9304 22.6863 18.9304 22.2355C18.9304 21.7848 19.2684 21.4468 19.7191 21.4468C20.1698 21.4468 20.5078 21.7848 20.5078 22.2355C20.5078 22.6863 20.1698 23.0243 19.7191 23.0243Z" fill="#E01C08"/>
<path d="M19.9422 10.9677C21.0624 10.9677 21.9704 10.0597 21.9704 8.93955C21.9704 7.81942 21.0624 6.91138 19.9422 6.91138C18.8221 6.91138 17.9141 7.81942 17.9141 8.93955C17.9141 10.0597 18.8221 10.9677 19.9422 10.9677Z" fill="#E01C08"/>
<path d="M19.9422 34.2914C21.0624 34.2914 21.9704 33.3834 21.9704 32.2633C21.9704 31.1431 21.0624 30.2351 19.9422 30.2351C18.8221 30.2351 17.9141 31.1431 17.9141 32.2633C17.9141 33.3834 18.8221 34.2914 19.9422 34.2914Z" fill="#E01C08"/>
<path d="M11.7196 14.3476C12.8397 14.3476 13.7477 13.4396 13.7477 12.3194C13.7477 11.1993 12.8397 10.2913 11.7196 10.2913C10.5994 10.2913 9.69141 11.1993 9.69141 12.3194C9.69141 13.4396 10.5994 14.3476 11.7196 14.3476Z" fill="#E01C08"/>
<path d="M28.1688 30.9116C29.2889 30.9116 30.197 30.0035 30.197 28.8834C30.197 27.7633 29.2889 26.8552 28.1688 26.8552C27.0487 26.8552 26.1406 27.7633 26.1406 28.8834C26.1406 30.0035 27.0487 30.9116 28.1688 30.9116Z" fill="#E01C08"/>
<path d="M8.33676 22.6865C9.45689 22.6865 10.3649 21.7784 10.3649 20.6583C10.3649 19.5382 9.45689 18.6301 8.33676 18.6301C7.21664 18.6301 6.30859 19.5382 6.30859 20.6583C6.30859 21.7784 7.21664 22.6865 8.33676 22.6865Z" fill="#E01C08"/>
<path d="M31.6629 22.6865C32.7831 22.6865 33.6911 21.7784 33.6911 20.6583C33.6911 19.5382 32.7831 18.6301 31.6629 18.6301C30.5428 18.6301 29.6348 19.5382 29.6348 20.6583C29.6348 21.7784 30.5428 22.6865 31.6629 22.6865Z" fill="#E01C08"/>
<path d="M11.7196 30.9116C12.8397 30.9116 13.7477 30.0035 13.7477 28.8834C13.7477 27.7633 12.8397 26.8552 11.7196 26.8552C10.5994 26.8552 9.69141 27.7633 9.69141 28.8834C9.69141 30.0035 10.5994 30.9116 11.7196 30.9116Z" fill="#E01C08"/>
<path d="M28.1688 14.3476C29.2889 14.3476 30.197 13.4396 30.197 12.3194C30.197 11.1993 29.2889 10.2913 28.1688 10.2913C27.0487 10.2913 26.1406 11.1993 26.1406 12.3194C26.1406 13.4396 27.0487 14.3476 28.1688 14.3476Z" fill="#E01C08"/>
<path d="M57.5781 30.8013C56.2948 30.8013 55.1615 30.5513 54.1781 30.0513C53.2115 29.5513 52.4531 28.8513 51.9031 27.9513C51.3698 27.0347 51.1031 25.9847 51.1031 24.8013V13.4013C51.1031 13.318 51.1281 13.2513 51.1781 13.2013C51.2448 13.1347 51.3198 13.1013 51.4031 13.1013H54.3281C54.4115 13.1013 54.4781 13.1347 54.5281 13.2013C54.5948 13.2513 54.6281 13.318 54.6281 13.4013V24.8263C54.6281 25.7097 54.8948 26.4263 55.4281 26.9763C55.9781 27.5097 56.6948 27.7763 57.5781 27.7763C58.4615 27.7763 59.1698 27.5097 59.7031 26.9763C60.2531 26.4263 60.5281 25.7097 60.5281 24.8263V13.4013C60.5281 13.318 60.5531 13.2513 60.6031 13.2013C60.6698 13.1347 60.7448 13.1013 60.8281 13.1013H63.7531C63.8365 13.1013 63.9031 13.1347 63.9531 13.2013C64.0198 13.2513 64.0531 13.318 64.0531 13.4013V24.8013C64.0531 25.9847 63.7781 27.0347 63.2281 27.9513C62.6948 28.8513 61.9365 29.5513 60.9531 30.0513C59.9865 30.5513 58.8615 30.8013 57.5781 30.8013ZM67.0258 30.6013C66.9424 30.6013 66.8674 30.5763 66.8008 30.5263C66.7508 30.4597 66.7258 30.3847 66.7258 30.3013V13.4013C66.7258 13.318 66.7508 13.2513 66.8008 13.2013C66.8674 13.1347 66.9424 13.1013 67.0258 13.1013H69.9508C70.0341 13.1013 70.1008 13.1347 70.1508 13.2013C70.2174 13.2513 70.2508 13.318 70.2508 13.4013V30.3013C70.2508 30.3847 70.2174 30.4597 70.1508 30.5263C70.1008 30.5763 70.0341 30.6013 69.9508 30.6013H67.0258ZM80.2043 20.2763C80.2043 20.3597 80.171 20.4347 80.1043 20.5013C80.0543 20.5513 79.9876 20.5763 79.9043 20.5763H77.5043C77.421 20.5763 77.3793 20.618 77.3793 20.7013V26.0013C77.3793 26.5513 77.4876 26.9597 77.7043 27.2263C77.9376 27.493 78.3043 27.6263 78.8043 27.6263H79.6293C79.7126 27.6263 79.7793 27.6597 79.8293 27.7263C79.896 27.7763 79.9293 27.843 79.9293 27.9263V30.3013C79.9293 30.4847 79.8293 30.593 79.6293 30.6263C78.9293 30.6597 78.4293 30.6763 78.1293 30.6763C76.746 30.6763 75.7126 30.4513 75.0293 30.0013C74.346 29.5347 73.996 28.668 73.9793 27.4013V20.7013C73.9793 20.618 73.9376 20.5763 73.8543 20.5763H72.4293C72.346 20.5763 72.271 20.5513 72.2043 20.5013C72.1543 20.4347 72.1293 20.3597 72.1293 20.2763V18.0513C72.1293 17.968 72.1543 17.9013 72.2043 17.8513C72.271 17.7847 72.346 17.7513 72.4293 17.7513H73.8543C73.9376 17.7513 73.9793 17.7097 73.9793 17.6263V14.6513C73.9793 14.568 74.0043 14.5013 74.0543 14.4513C74.121 14.3847 74.196 14.3513 74.2793 14.3513H77.0793C77.1626 14.3513 77.2293 14.3847 77.2793 14.4513C77.346 14.5013 77.3793 14.568 77.3793 14.6513V17.6263C77.3793 17.7097 77.421 17.7513 77.5043 17.7513H79.9043C79.9876 17.7513 80.0543 17.7847 80.1043 17.8513C80.171 17.9013 80.2043 17.968 80.2043 18.0513V20.2763ZM88.7264 17.5763C89.3264 17.5763 89.8014 17.693 90.1514 17.9263C90.2847 17.993 90.3347 18.118 90.3014 18.3013L89.7764 21.1513C89.7597 21.3513 89.643 21.4097 89.4264 21.3263C89.1764 21.243 88.8847 21.2013 88.5514 21.2013C88.418 21.2013 88.2347 21.218 88.0014 21.2513C87.4014 21.3013 86.893 21.5263 86.4764 21.9263C86.0597 22.3097 85.8514 22.8263 85.8514 23.4763V30.3013C85.8514 30.3847 85.818 30.4597 85.7514 30.5263C85.7014 30.5763 85.6347 30.6013 85.5514 30.6013H82.6264C82.543 30.6013 82.468 30.5763 82.4014 30.5263C82.3514 30.4597 82.3264 30.3847 82.3264 30.3013V18.0513C82.3264 17.968 82.3514 17.9013 82.4014 17.8513C82.468 17.7847 82.543 17.7513 82.6264 17.7513H85.5514C85.6347 17.7513 85.7014 17.7847 85.7514 17.8513C85.818 17.9013 85.8514 17.968 85.8514 18.0513V19.0013C85.8514 19.0513 85.868 19.0847 85.9014 19.1013C85.9347 19.118 85.9597 19.1097 85.9764 19.0763C86.6597 18.0763 87.5764 17.5763 88.7264 17.5763ZM96.8752 17.5513C97.9585 17.5513 98.9252 17.743 99.7752 18.1263C100.625 18.493 101.284 19.0013 101.75 19.6513C102.234 20.3013 102.475 21.0263 102.475 21.8263V30.3013C102.475 30.3847 102.442 30.4597 102.375 30.5263C102.325 30.5763 102.259 30.6013 102.175 30.6013H99.2502C99.1669 30.6013 99.0919 30.5763 99.0252 30.5263C98.9752 30.4597 98.9502 30.3847 98.9502 30.3013V29.4763C98.9502 29.4263 98.9335 29.393 98.9002 29.3763C98.8669 29.3597 98.8335 29.3763 98.8002 29.4263C98.1002 30.343 96.9752 30.8013 95.4252 30.8013C94.1252 30.8013 93.0752 30.4847 92.2752 29.8513C91.4752 29.218 91.0752 28.2847 91.0752 27.0513C91.0752 25.768 91.5252 24.7763 92.4252 24.0763C93.3252 23.3597 94.6085 23.0013 96.2752 23.0013H98.8252C98.9085 23.0013 98.9502 22.9597 98.9502 22.8763V22.3263C98.9502 21.7763 98.7835 21.3513 98.4502 21.0513C98.1169 20.7347 97.6169 20.5763 96.9502 20.5763C96.4335 20.5763 96.0002 20.668 95.6502 20.8513C95.3169 21.0347 95.1002 21.293 95.0002 21.6263C94.9502 21.8097 94.8419 21.893 94.6752 21.8763L91.6502 21.4763C91.4502 21.443 91.3585 21.368 91.3752 21.2513C91.4419 20.5513 91.7169 19.918 92.2002 19.3513C92.7002 18.7847 93.3502 18.343 94.1502 18.0263C94.9669 17.7097 95.8752 17.5513 96.8752 17.5513ZM96.3752 28.1763C97.0919 28.1763 97.7002 27.9847 98.2002 27.6013C98.7002 27.218 98.9502 26.7263 98.9502 26.1263V25.2263C98.9502 25.143 98.9085 25.1013 98.8252 25.1013H97.0252C96.2752 25.1013 95.6835 25.243 95.2502 25.5263C94.8335 25.8097 94.6252 26.2097 94.6252 26.7263C94.6252 27.1763 94.7835 27.5347 95.1002 27.8013C95.4169 28.0513 95.8419 28.1763 96.3752 28.1763ZM111.333 30.8013C110.033 30.8013 108.892 30.5513 107.908 30.0513C106.925 29.5347 106.167 28.818 105.633 27.9013C105.1 26.9847 104.833 25.9263 104.833 24.7263V18.9513C104.833 17.7513 105.1 16.693 105.633 15.7763C106.167 14.8597 106.925 14.1513 107.908 13.6513C108.892 13.1513 110.033 12.9013 111.333 12.9013C112.617 12.9013 113.742 13.143 114.708 13.6263C115.692 14.093 116.45 14.768 116.983 15.6513C117.533 16.518 117.808 17.5263 117.808 18.6763C117.808 18.8263 117.708 18.918 117.508 18.9513L114.583 19.1263H114.533C114.367 19.1263 114.283 19.0347 114.283 18.8513C114.283 17.968 114.008 17.2597 113.458 16.7263C112.925 16.193 112.217 15.9263 111.333 15.9263C110.433 15.9263 109.708 16.193 109.158 16.7263C108.625 17.2597 108.358 17.968 108.358 18.8513V24.8763C108.358 25.743 108.625 26.443 109.158 26.9763C109.708 27.5097 110.433 27.7763 111.333 27.7763C112.217 27.7763 112.925 27.5097 113.458 26.9763C114.008 26.443 114.283 25.743 114.283 24.8763C114.283 24.693 114.383 24.6013 114.583 24.6013L117.508 24.7263C117.592 24.7263 117.658 24.7513 117.708 24.8013C117.775 24.8513 117.808 24.9097 117.808 24.9763C117.808 26.1263 117.533 27.143 116.983 28.0263C116.45 28.9097 115.692 29.593 114.708 30.0763C113.742 30.5597 112.617 30.8013 111.333 30.8013ZM125.22 17.5513C126.303 17.5513 127.27 17.743 128.12 18.1263C128.97 18.493 129.628 19.0013 130.095 19.6513C130.578 20.3013 130.82 21.0263 130.82 21.8263V30.3013C130.82 30.3847 130.787 30.4597 130.72 30.5263C130.67 30.5763 130.603 30.6013 130.52 30.6013H127.595C127.512 30.6013 127.437 30.5763 127.37 30.5263C127.32 30.4597 127.295 30.3847 127.295 30.3013V29.4763C127.295 29.4263 127.278 29.393 127.245 29.3763C127.212 29.3597 127.178 29.3763 127.145 29.4263C126.445 30.343 125.32 30.8013 123.77 30.8013C122.47 30.8013 121.42 30.4847 120.62 29.8513C119.82 29.218 119.42 28.2847 119.42 27.0513C119.42 25.768 119.87 24.7763 120.77 24.0763C121.67 23.3597 122.953 23.0013 124.62 23.0013H127.17C127.253 23.0013 127.295 22.9597 127.295 22.8763V22.3263C127.295 21.7763 127.128 21.3513 126.795 21.0513C126.462 20.7347 125.962 20.5763 125.295 20.5763C124.778 20.5763 124.345 20.668 123.995 20.8513C123.662 21.0347 123.445 21.293 123.345 21.6263C123.295 21.8097 123.187 21.893 123.02 21.8763L119.995 21.4763C119.795 21.443 119.703 21.368 119.72 21.2513C119.787 20.5513 120.062 19.918 120.545 19.3513C121.045 18.7847 121.695 18.343 122.495 18.0263C123.312 17.7097 124.22 17.5513 125.22 17.5513ZM124.72 28.1763C125.437 28.1763 126.045 27.9847 126.545 27.6013C127.045 27.218 127.295 26.7263 127.295 26.1263V25.2263C127.295 25.143 127.253 25.1013 127.17 25.1013H125.37C124.62 25.1013 124.028 25.243 123.595 25.5263C123.178 25.8097 122.97 26.2097 122.97 26.7263C122.97 27.1763 123.128 27.5347 123.445 27.8013C123.762 28.0513 124.187 28.1763 124.72 28.1763ZM147.553 17.5513C148.853 17.5513 149.87 17.943 150.603 18.7263C151.336 19.5097 151.703 20.6097 151.703 22.0263V30.3013C151.703 30.3847 151.67 30.4597 151.603 30.5263C151.553 30.5763 151.486 30.6013 151.403 30.6013H148.478C148.395 30.6013 148.32 30.5763 148.253 30.5263C148.203 30.4597 148.178 30.3847 148.178 30.3013V22.8013C148.178 22.118 148.003 21.5763 147.653 21.1763C147.303 20.7763 146.836 20.5763 146.253 20.5763C145.67 20.5763 145.195 20.7763 144.828 21.1763C144.461 21.5763 144.278 22.1097 144.278 22.7763V30.3013C144.278 30.3847 144.245 30.4597 144.178 30.5263C144.128 30.5763 144.061 30.6013 143.978 30.6013H141.078C140.995 30.6013 140.92 30.5763 140.853 30.5263C140.803 30.4597 140.778 30.3847 140.778 30.3013V22.8013C140.778 22.1347 140.595 21.6013 140.228 21.2013C139.861 20.7847 139.386 20.5763 138.803 20.5763C138.27 20.5763 137.82 20.7347 137.453 21.0513C137.103 21.368 136.895 21.8097 136.828 22.3763V30.3013C136.828 30.3847 136.795 30.4597 136.728 30.5263C136.678 30.5763 136.611 30.6013 136.528 30.6013H133.603C133.52 30.6013 133.445 30.5763 133.378 30.5263C133.328 30.4597 133.303 30.3847 133.303 30.3013V18.0513C133.303 17.968 133.328 17.9013 133.378 17.8513C133.445 17.7847 133.52 17.7513 133.603 17.7513H136.528C136.611 17.7513 136.678 17.7847 136.728 17.8513C136.795 17.9013 136.828 17.968 136.828 18.0513V19.0263C136.828 19.0763 136.845 19.1097 136.878 19.1263C136.911 19.143 136.945 19.1263 136.978 19.0763C137.661 18.0597 138.72 17.5513 140.153 17.5513C140.986 17.5513 141.711 17.7263 142.328 18.0763C142.961 18.4263 143.445 18.9263 143.778 19.5763C143.828 19.6763 143.886 19.6763 143.953 19.5763C144.32 18.893 144.811 18.3847 145.428 18.0513C146.061 17.718 146.77 17.5513 147.553 17.5513Z" fill="white"/>
<path d="M155.932 30.7013C155.365 30.7013 154.89 30.518 154.507 30.1513C154.14 29.768 153.957 29.293 153.957 28.7263C153.957 28.143 154.14 27.668 154.507 27.3013C154.873 26.9347 155.348 26.7513 155.932 26.7513C156.515 26.7513 156.99 26.9347 157.357 27.3013C157.723 27.668 157.907 28.143 157.907 28.7263C157.907 29.293 157.715 29.768 157.332 30.1513C156.965 30.518 156.498 30.7013 155.932 30.7013Z" fill="#E01C08"/>
</svg>
